<svg width="769" height="769" viewBox="0 0 769 769" fill="none" xmlns="http://www.w3.org/2000/svg">
<circle cx="384.5" cy="384.5" r="384.5" fill="#8247E5"/>
<path d="M490.201 313.641C482.689 309.344 473.031 309.344 464.446 313.641L404.352 349.089L363.574 371.647L304.554 407.095C297.042 411.392 287.384 411.392 278.799 407.095L232.655 379.166C225.144 374.869 219.778 366.276 219.778 356.608V302.899C219.778 294.306 224.07 285.712 232.655 280.341L278.799 253.487C286.311 249.19 295.969 249.19 304.554 253.487L350.697 281.415C358.209 285.712 363.574 294.306 363.574 303.973V339.421L404.352 315.789V279.267C404.352 270.674 400.06 262.08 391.475 256.709L305.627 206.223C298.115 201.926 288.457 201.926 279.872 206.223L191.877 257.783C183.292 262.08 179 270.674 179 279.267V380.24C179 388.834 183.292 397.427 191.877 402.798L278.799 453.285C286.311 457.582 295.969 457.582 304.554 453.285L363.574 418.911L404.352 395.279L463.373 360.905C470.885 356.608 480.543 356.608 489.128 360.905L535.272 387.76C542.783 392.056 548.149 400.65 548.149 410.318V464.027C548.149 472.62 543.856 481.214 535.272 486.585L490.201 513.439C482.689 517.736 473.031 517.736 464.446 513.439L418.303 486.585C410.791 482.288 405.426 473.694 405.426 464.027V429.653L364.648 453.285V488.733C364.648 497.326 368.94 505.92 377.525 511.291L464.446 561.777C471.958 566.074 481.616 566.074 490.201 561.777L577.123 511.291C584.634 506.994 590 498.401 590 488.733V386.685C590 378.092 585.708 369.499 577.123 364.128L490.201 313.641Z" fill="white"/>
</svg>
